<svg width="17" height="16" viewBox="0 0 17 16" fill="none" xmlns="http://www.w3.org/2000/svg">
<path fill-rule="evenodd" clip-rule="evenodd" d="M8.05199 0C3.63951 0 0.0595703 3.58333 0.0595703 8C0.0595703 12.4208 3.63951 16 8.05199 16C12.4645 16 16.0444 12.4208 16.0444 8C16.0444 3.58333 12.4645 0 8.05199 0ZM13.1265 3.6875C14.0256 4.74583 14.5959 6.0875 14.6958 7.55833C13.2555 7.48333 11.5322 7.48333 10.1501 7.6125C9.9753 7.17083 9.79631 6.7375 9.60066 6.32083C11.195 5.62917 12.423 4.72083 13.1265 3.6875ZM8.0519 1.3335C9.66703 1.3335 11.149 1.9085 12.302 2.86683C11.5777 3.7835 10.4413 4.57933 9.02597 5.1835C8.25171 3.75016 7.36088 2.51683 6.41178 1.546C6.94045 1.41266 7.48577 1.3335 8.0519 1.3335ZM5.03821 2.0625C5.9998 3.02083 6.90311 4.24167 7.69403 5.67083C6.19129 6.12917 4.46792 6.39167 2.628 6.39167C2.27833 6.39167 1.93699 6.37917 1.59981 6.35833C2.07852 4.47917 3.34815 2.92083 5.03821 2.0625ZM1.40414 7.68333C1.78295 7.7 2.16592 7.70833 2.55305 7.70417C4.65106 7.67917 6.60338 7.35 8.28095 6.8125C8.43914 7.14167 8.58899 7.47917 8.73053 7.825C8.50158 7.87917 8.2976 7.9375 8.13526 8.00417C5.8416 8.96667 4.03498 10.5208 3.05674 12.4C2.02438 11.225 1.39165 9.6875 1.39165 8C1.39165 7.89167 1.39581 7.7875 1.40414 7.68333ZM8.05201 14.6665C6.5118 14.6665 5.09648 14.1415 3.96838 13.2623C4.85504 11.504 6.43687 10.0498 8.43082 9.14564C8.61814 9.05814 8.8679 8.9873 9.15513 8.9248C9.3924 9.58314 9.6047 10.2665 9.79203 10.9748C10.0793 12.079 10.2832 13.1706 10.4081 14.229C9.67547 14.5081 8.88455 14.6665 8.05201 14.6665ZM11.6527 13.6044C11.5278 12.5336 11.3239 11.4336 11.0325 10.3169C10.8909 9.77523 10.7286 9.25023 10.5538 8.73773C11.8609 8.62939 13.426 8.64606 14.6707 8.73773C14.4459 10.7836 13.297 12.5419 11.6527 13.6044Z" fill="white"/>
</svg>
