<svg width="18" height="16" viewBox="0 0 18 16" fill="none" xmlns="http://www.w3.org/2000/svg">
<path fill-rule="evenodd" clip-rule="evenodd" d="M5.88426 9.31152C5.51887 9.31152 5.20627 9.48682 4.95503 9.84623C4.70307 10.1995 4.57863 10.6368 4.57863 11.1559C4.57863 11.6756 4.70543 12.1145 4.95503 12.4687C5.20627 12.8246 5.51731 13.0009 5.88426 13.0009C6.22445 13.0009 6.52063 12.8229 6.77023 12.4687C7.02139 12.1145 7.14663 11.6756 7.14663 11.1559C7.14663 10.6384 7.01983 10.2004 6.77023 9.84623C6.52059 9.48844 6.22686 9.31152 5.88426 9.31152ZM12.1448 9.31152C11.7825 9.31152 11.4683 9.48682 11.2163 9.84623C10.9652 10.1995 10.8415 10.6368 10.8415 11.1559C10.8415 11.6756 10.9691 12.1145 11.2163 12.4687C11.4683 12.8246 11.781 13.0009 12.1448 13.0009C12.4865 13.0009 12.7818 12.8229 13.033 12.4687C13.2851 12.1145 13.4102 11.6756 13.4102 11.1559C13.4102 10.6384 13.2835 10.2004 13.033 9.84623C12.7818 9.48844 12.4905 9.31152 12.1448 9.31152ZM16.5949 4.5H16.5926C16.5926 4.5 16.7044 3.90567 16.6052 2.8675C16.5178 1.82933 16.3059 0.87425 15.9594 0C15.9594 0 15.7823 0.0316667 15.4484 0.120667C15.1144 0.209667 14.564 0.383125 13.8087 0.736C13.0662 1.09183 12.2874 1.5605 11.4739 2.13204C10.9211 1.96812 10.0958 1.88458 8.99095 1.88458C7.93805 1.88458 7.11199 1.96842 6.5087 2.13229C4.72274 0.8465 3.23124 0.134583 2.01929 0C1.67509 0.87425 1.46326 1.83296 1.37667 2.87375C1.28063 3.91287 1.39398 4.51246 1.39398 4.51246C0.422375 5.60629 0.0227051 7.18921 0.0227051 8.49137C0.0227051 9.50154 0.0490587 10.4113 0.268018 11.2197C0.490863 12.0243 0.775145 12.6835 1.11302 13.1873C1.4579 13.6923 1.87447 14.1367 2.37767 14.518C2.87699 14.9061 3.33842 15.1831 3.75499 15.3603C4.17396 15.5425 4.65113 15.6771 5.19611 15.7712C5.72999 15.8706 6.13483 15.9231 6.41675 15.9377C6.41675 15.9377 7.53818 16 8.9942 16C10.4502 16 11.5693 15.9377 11.5693 15.9377C11.8504 15.923 12.256 15.8696 12.7922 15.7712C13.3348 15.6754 13.8144 15.5376 14.2317 15.3603C14.6483 15.1815 15.1106 14.9061 15.6122 14.518C16.1138 14.1417 16.5297 13.6955 16.8746 13.1873C17.2124 12.6835 17.4951 12.0243 17.7196 11.2197C17.9393 10.4113 17.9657 9.49533 17.9657 8.48517C17.9656 7.22454 17.5644 5.625 16.5949 4.5ZM13.9758 14.2354C12.8599 14.7809 11.2164 15.0002 9.0366 15.0002L8.95077 14.9986C6.77027 14.9986 5.13146 14.7799 4.03057 14.2315C2.92885 13.686 2.37762 12.5625 2.37762 10.8674C2.37762 9.85369 2.72094 9.03452 3.39821 8.40464C3.69274 8.13319 4.05657 7.94552 4.50542 7.8331C4.95115 7.72652 5.36067 7.71802 5.74576 7.73039C6.12216 7.74769 6.64896 7.82189 7.32153 7.87473C7.99399 7.92877 8.49487 8.00023 8.99411 8.00023C9.46263 8.00023 10.084 7.91869 11.0809 7.83527C12.0818 7.75314 12.8229 7.71148 13.3024 7.7936C13.7946 7.87702 14.2231 8.05202 14.5893 8.40785C15.2995 9.06414 15.6547 9.88723 15.6547 10.8697C15.6547 12.5641 15.0884 13.6893 13.9758 14.2354Z" fill="white"/>
</svg>
