<svg width="17" height="16" viewBox="0 0 17 16" fill="none" xmlns="http://www.w3.org/2000/svg">
<path fill-rule="evenodd" clip-rule="evenodd" d="M4.82248 4.69162C5.70078 3.8125 6.8685 3.32315 8.11059 3.32315C9.35267 3.32315 10.5204 3.81507 11.3987 4.6942C11.956 5.252 12.3541 5.92229 12.5709 6.67035H16.0615V1.97424C16.0615 0.872529 15.2108 0.0209961 14.1101 0.0209961H2.1526C1.05193 0.0209961 0.118164 0.872529 0.118164 1.97424V6.67035H3.65028C3.86709 5.92229 4.26521 5.24942 4.82248 4.69162ZM10.4178 5.62173C11.7149 6.92009 11.7149 9.02516 10.4178 10.3235C9.12066 11.6219 7.01758 11.6219 5.72045 10.3235C4.42331 9.02516 4.42331 6.92009 5.72045 5.62173C7.01758 4.32336 9.12066 4.32336 10.4178 5.62173ZM14.2015 4.01081C14.495 4.01081 14.733 3.77264 14.733 3.47887V1.88302C14.733 1.5892 14.495 1.35107 14.2015 1.35107H12.6072C12.3136 1.35107 12.0757 1.58925 12.0757 1.88302V3.47887C12.0757 3.77268 12.3137 4.01081 12.6072 4.01081H14.2015ZM8.11059 12.6322C9.35267 12.6322 10.5204 12.1533 11.3987 11.2741C12.2754 10.3966 12.7589 9.20541 12.7606 8.00022H16.0615V13.9431C16.0615 15.0448 15.2108 15.9794 14.1101 15.9794H2.1526C1.05193 15.9794 0.118164 15.0448 0.118164 13.9431V8.00022H3.46053C3.46236 9.20541 3.94581 10.3993 4.82248 11.2768C5.70078 12.1559 6.8685 12.6322 8.11059 12.6322Z" fill="white"/>
</svg>
