<svg width="19" height="15" viewBox="0 0 19 15" fill="none" xmlns="http://www.w3.org/2000/svg">
<path fill-rule="evenodd" clip-rule="evenodd" d="M18.5903 1.77734C17.9113 2.07812 17.1854 2.28125 16.4205 2.375C17.201 1.90625 17.802 1.16406 18.083 0.28125C17.3532 0.714844 16.5454 1.03125 15.6829 1.19922C14.9922 0.460938 14.0087 0 12.9238 0C10.836 0 9.14616 1.69531 9.14616 3.78516C9.14616 4.08203 9.17738 4.37109 9.24372 4.64844C6.10217 4.49219 3.31575 2.98438 1.45423 0.691406C1.13032 1.25 0.942996 1.90234 0.942996 2.59375C0.942996 3.90625 1.61424 5.06641 2.6289 5.74609C2.00449 5.73047 1.41911 5.55859 0.911777 5.27344C0.911777 5.28906 0.911777 5.30469 0.911777 5.32031C0.911777 7.15625 2.21523 8.68359 3.94406 9.03125C3.62795 9.11719 3.29233 9.16406 2.94891 9.16406C2.70695 9.16406 2.46889 9.14062 2.23864 9.09375C2.71866 10.5977 4.11577 11.6914 5.77045 11.7227C4.47871 12.7383 2.84744 13.3438 1.07568 13.3438C0.771285 13.3438 0.470788 13.3242 0.174194 13.2891C1.84058 14.375 3.82698 15 5.95778 15C12.916 15 16.7171 9.23047 16.7171 4.22656C16.7171 4.0625 16.7132 3.89844 16.7054 3.73828C17.443 3.20312 18.083 2.53906 18.5903 1.77734" fill="white"/>
</svg>
